<?xml version="1.0" encoding="utf-8"?>
<!-- Generator: Adobe Illustrator 18.1.0, SVG Export Plug-In . SVG Version: 6.00 Build 0)  -->
<!DOCTYPE svg PUBLIC "-//W3C//DTD SVG 1.1//EN" "http://www.w3.org/Graphics/SVG/1.1/DTD/svg11.dtd">
<svg version="1.1" id="Layer_1" xmlns="http://www.w3.org/2000/svg" xmlns:xlink="http://www.w3.org/1999/xlink" x="0px" y="0px"
	 width="264.9px" height="67.6px" viewBox="0 0 264.9 67.6" enable-background="new 0 0 264.9 67.6" xml:space="preserve">
<path fill="#FFFFFF" d="M56.3,49.2c-0.7,0.3-1.7,0.5-2.9,0.8c-0.2-4.9-0.3-9-0.1-10.6c0.4-2.6,1.4-4.5,1.6-9.1
	c0.4-6.7-2.4-10.2-3.1-13.1c-0.3-1.4,0-2.2,0.9-2.6c0.8-0.4,4.3-0.5,4.7-0.6c0.4-0.1,0.8-0.7,1.3-1.4c0.4-0.7-0.3-0.7-1.2-1.1
	c-0.9-0.3-1.6-0.7-2.4-1.6c-0.3-0.3-0.4-1.2-0.5-1.5c-0.2-0.4-0.7-1.1-2.2-1.8c-0.1-0.1-0.3-0.1-0.4-0.2c0.4-1.1,1.5-4.1,0.6-4.1
	c-1,0-3.6,2.4-4.4,3.2c-0.5,0-0.9,0-0.9,0s0.1-4.9-0.8-4.9c-0.6,0-3,3-4.6,8.8c-1.5,5.7-0.4,13-0.4,13s-2,1.9-5.3,3.7
	c-3.1,1.7-7.5,2.6-8.2,2.7c0,0,0.1,0,0.1,0H28c0,0,0,0,0.1,0c-18.9-3.2-17.9,7.4-27.4,8.9c0,0-0.3,0-0.3-0.2c0-0.2,0.3-0.3,0.3-0.4
	c5.8-2,7-7.9,14.8-10V0H0v61.5h58.6l2.5-14.3C61.1,47.3,58.9,48.2,56.3,49.2z M6.5,39c-1.7,0-3.2-0.9-3.2-0.9s1.9-0.5,3.3-1.3
	c0.9-0.5,2-1.4,2.2-1c0.1,0.3-1.3,1.4-2.1,1.7c2.2,0.6,5.3,0.4,5.3,0.4S10.3,39,6.5,39z M15.4,53.9v-15C21.8,38,25.7,36,25.7,36
	l-4,17.5C17.9,53.7,15.4,53.9,15.4,53.9z M30.9,52.7c-2.5,0.2-4.8,0.4-6.9,0.6c2.3-11.5,8.1-12.9,8.9-11.9
	C33.6,42.4,31.8,49.2,30.9,52.7z M45.7,51.2c-3.8,0.5-8,0.9-12.1,1.3c0.5-2.9,1.8-8.7,3.5-10.7c2.3-2.7,6.4-3.3,8.2-2.6
	C46.5,39.7,46,45.5,45.7,51.2z M48.1,50.8c0.3-9,1.7-12.8,2-12.7c0.7,0.2,1,7.7,1.1,12.2C50.2,50.5,49.2,50.7,48.1,50.8z"/>
<g>
	<path fill="#FFFFFF" d="M102.1,51c0,6.3-4.5,9.2-8.8,9.2c-4.8,0-8.6-3.3-8.6-8.9c0-5.7,3.7-9.1,8.9-9.1
		C98.6,42.2,102.1,45.8,102.1,51z M89.1,51.2c0,3.3,1.7,5.8,4.3,5.8c2.5,0,4.2-2.4,4.2-5.9c0-2.7-1.2-5.8-4.2-5.8
		C90.3,45.3,89.1,48.3,89.1,51.2z"/>
	<path fill="#FFFFFF" d="M142.8,38.2v4.4h4.1v3.3h-4.1v7.6c0,2.1,0.6,3.2,2.2,3.2c0.8,0,1.2,0,1.7-0.2l0.1,3.3
		c-0.6,0.2-1.8,0.5-3.1,0.5c-1.6,0-2.9-0.5-3.7-1.4c-1-1-1.4-2.6-1.4-4.8v-8.1H136v-3.3h2.4v-3.2L142.8,38.2z"/>
	<path fill="#FFFFFF" d="M152.3,42.6l3.1,9.2c0.4,1.1,0.7,2.4,1,3.3h0.1c0.2-1,0.6-2.3,0.9-3.4l2.7-9.2h4.6l-4.3,11.7
		c-2.4,6.4-4,9.3-6,11.1c-1.7,1.5-3.5,2-4.6,2.2l-1-3.6c0.7-0.2,1.6-0.6,2.5-1.2c0.8-0.5,1.8-1.6,2.4-2.7c0.2-0.3,0.2-0.6,0.2-0.8
		c0-0.2,0-0.4-0.2-0.8l-6.3-15.8H152.3z"/>
	<path fill="#FFFFFF" d="M258.1,37.8c0,1.3-1,2.3-2.5,2.3c-1.4,0-2.4-1.1-2.4-2.3c0-1.3,1-2.4,2.4-2.4
		C257.1,35.4,258.1,36.4,258.1,37.8z M253.5,59.8V42.6h4.3v17.2H253.5z"/>
	<path fill="#FFFFFF" d="M260.6,34.7h4.3v25.1h-4.3V34.7z"/>
	<g>
		<g>
			<path fill="#FFFFFF" d="M218.1,15.6c-0.7-0.9-2.1-1.4-3.4-1.4c-3,0-4.9,1-5.1,1.1v-1.4V7.1l-4.3,0.8v23.3h4.3V17.9
				c0.8-0.3,1.9-0.4,2.5-0.4c2,0,2.7,1,2.7,3.2v10.5h4.3V19.6C219.1,18,219.1,16.8,218.1,15.6z"/>
		</g>
	</g>
	<g>
		<g>
			<path fill="#FFFFFF" d="M133.5,44.2c-0.7-0.9-2.1-1.4-3.4-1.4c-3,0-4.9,1-5.1,1.1v-0.7v-0.6h-4.3v17.2h4.3V46.5
				c0.8-0.3,1.9-0.4,2.5-0.4c2,0,2.7,1,2.7,3.2v10.5h4.3V48.2C134.5,46.6,134.5,45.3,133.5,44.2z"/>
		</g>
	</g>
	<g>
		<g>
			<path fill="#FFFFFF" d="M105.1,58.2c0.7,0.9,2.1,1.4,3.4,1.4c3,0,4.9-1,5.1-1.1v0.7v0.6h4.3V42.6h-4.3v13.3
				c-0.8,0.3-1.9,0.4-2.5,0.4c-2,0-2.7-1-2.7-3.2V42.6h-4.3v11.6C104.1,55.8,104.1,57,105.1,58.2z"/>
		</g>
	</g>
	<path fill="#FFFFFF" d="M69.2,7.4h4.9v20.2h9.6l-1,3.6H69.2V7.4z"/>
	<path fill="#FFFFFF" d="M105.6,9.2c0,1.3-1,2.3-2.5,2.3c-1.4,0-2.4-1.1-2.4-2.3c0-1.3,1-2.4,2.4-2.4C104.7,6.8,105.6,7.9,105.6,9.2
		z M101,31.2V14h4.3v17.2H101z"/>
	<path fill="#FFFFFF" d="M138.4,27.2c1,0.6,2.8,1.3,4.4,1.3c1.9,0,2.8-0.8,2.8-1.9c0-1.2-0.7-1.7-2.8-2.5c-3.4-1.1-4.7-3-4.7-5
		c0-3,2.5-5.4,6.5-5.4c1.9,0,3.6,0.5,4.6,1l-0.9,3c-0.7-0.4-2.1-1-3.6-1c-1.6,0-2.4,0.8-2.4,1.8c0,1.1,0.8,1.6,3,2.4
		c3.1,1.1,4.6,2.7,4.6,5.2c0,3.1-2.4,5.4-7,5.4c-2.1,0-4-0.5-5.2-1.2L138.4,27.2z"/>
	<path fill="#FFFFFF" d="M157.4,9.6V14h4.1v3.3h-4.1v7.6c0,2.1,0.6,3.2,2.2,3.2c0.8,0,1.2,0,1.7-0.2l0.1,3.3
		c-0.6,0.2-1.8,0.5-3.1,0.5c-1.6,0-2.9-0.5-3.7-1.4c-1-1-1.4-2.6-1.4-4.8v-8.1h-2.4V14h2.4v-3.2L157.4,9.6z"/>
	<path fill="#FFFFFF" d="M191.8,27.2c1,0.6,2.8,1.3,4.4,1.3c1.9,0,2.8-0.8,2.8-1.9c0-1.2-0.7-1.7-2.8-2.5c-3.4-1.1-4.7-3-4.7-5
		c0-3,2.5-5.4,6.5-5.4c1.9,0,3.6,0.5,4.6,1l-0.9,3c-0.7-0.4-2.1-1-3.6-1c-1.6,0-2.4,0.8-2.4,1.8c0,1.1,0.8,1.6,3,2.4
		c3.1,1.1,4.6,2.7,4.6,5.2c0,3.1-2.4,5.4-7,5.4c-2.1,0-4-0.5-5.2-1.2L191.8,27.2z"/>
	<path fill="#FFFFFF" d="M226.2,9.2c0,1.3-1,2.3-2.5,2.3c-1.4,0-2.4-1.1-2.4-2.3c0-1.3,1-2.4,2.4-2.4C225.2,6.8,226.2,7.9,226.2,9.2
		z M221.6,31.2V14h4.3v17.2H221.6z"/>
	<path fill="#FFFFFF" d="M111.7,22.6c0-3.1,1.9-5.6,5.3-5.6c1.5,0,2.4,0.3,3.1,0.6l0.9-3.2c-1-0.4-2.6-0.8-4.2-0.8
		c-6,0-9.6,4-9.6,9.2c0,5.3,3.5,8.8,8.9,8.8c1.2,0,2.3-0.1,3.2-0.4l1.1-3.7c-0.8,0.4-1.9,0.7-3.4,0.7
		C114,28.2,111.7,26.1,111.7,22.6z"/>
	<path fill="#FFFFFF" d="M242.2,51.2c0-3.1,1.9-5.6,5.3-5.6c1.5,0,2.4,0.3,3.1,0.6l0.9-3.2c-1-0.4-2.6-0.8-4.2-0.8
		c-6,0-9.6,4-9.6,9.2c0,5.3,3.5,8.8,8.9,8.8c1.2,0,2.3-0.1,3.2-0.4l1.1-3.7c-0.8,0.4-1.9,0.7-3.4,0.7
		C244.5,56.7,242.2,54.7,242.2,51.2z"/>
	<path fill="#FFFFFF" d="M97.7,27.5c-1.3,0.5-2.8,0.8-4.8,0.8c-2.8,0-5.2-1.3-5.3-4.5h11.5c0.1-0.4,0.1-1,0.1-1.8
		c0-3.8-1.8-8.4-7.4-8.4c-5.5,0-8.4,4.5-8.4,9.3c0,5.3,3.3,8.7,8.9,8.7c1.7,0,3.1-0.2,4.4-0.6L97.7,27.5z M91.6,16.6
		c2.9,0,3.6,2.6,3.6,4.2h-7.6C87.8,19,88.9,16.6,91.6,16.6z"/>
	<path fill="#FFFFFF" d="M135.3,27.5c-1.3,0.5-2.8,0.8-4.8,0.8c-2.8,0-5.2-1.3-5.3-4.5h11.5c0.1-0.4,0.1-1,0.1-1.8
		c0-3.8-1.8-8.4-7.4-8.4c-5.5,0-8.4,4.5-8.4,9.3c0,5.3,3.3,8.7,8.9,8.7c1.7,0,3.1-0.2,4.4-0.6L135.3,27.5z M129.2,16.6
		c2.9,0,3.6,2.6,3.6,4.2h-7.6C125.4,19,126.5,16.6,129.2,16.6z"/>
	<path fill="#FFFFFF" d="M176.6,27.5c-1.3,0.5-2.8,0.8-4.8,0.8c-2.8,0-5.2-1.3-5.3-4.5h11.5c0.1-0.4,0.1-1,0.1-1.8
		c0-3.8-1.8-8.4-7.4-8.4c-5.5,0-8.4,4.5-8.4,9.3c0,5.3,3.3,8.7,8.9,8.7c1.7,0,3.1-0.2,4.4-0.6L176.6,27.5z M170.6,16.6
		c2.9,0,3.6,2.6,3.6,4.2h-7.6C166.7,19,167.9,16.6,170.6,16.6z"/>
	<path fill="#FFFFFF" d="M253.5,27.5c-1.3,0.5-2.8,0.8-4.8,0.8c-2.8,0-5.2-1.3-5.3-4.5h11.5c0.1-0.4,0.1-1,0.1-1.8
		c0-3.8-1.8-8.4-7.4-8.4c-5.5,0-8.4,4.5-8.4,9.3c0,5.3,3.3,8.7,8.9,8.7c1.7,0,3.1-0.2,4.4-0.6L253.5,27.5z M247.4,16.6
		c2.9,0,3.6,2.6,3.6,4.2h-7.6C243.6,19,244.7,16.6,247.4,16.6z"/>
	<path fill="#FFFFFF" d="M189.3,13.6c-1.9,0-3.9,1.2-4.7,3.6h-0.1V14h-0.2h-4v6.2v11h4.3v-8.9c0-2.3,1.8-4.6,4.4-4.6
		c0.5,0,0.9,0,1.3,0.1v-4.1C190,13.7,189.7,13.6,189.3,13.6z"/>
	<path fill="#FFFFFF" d="M237.8,13.6c-1.9,0-3.9,1.2-4.7,3.6h-0.1V14h-0.2h-4v6.2v11h4.3v-8.9c0-2.3,1.8-4.6,4.4-4.6
		c0.5,0,0.9,0,1.3,0.1v-4.1C238.4,13.7,238.2,13.6,237.8,13.6z"/>
	<path fill="#FFFFFF" d="M83.7,55.8c-1.1,0.5-2.9,0.8-4.6,0.8c-5.1,0-8.1-3.2-8.1-8.3c0-5.6,3.4-8.5,8.1-8.5c1.9,0,3.4,0.4,4.5,0.9
		l0.9-3.4c-0.9-0.4-2.8-1-5.6-1c-7.1,0-12.4,4.6-12.4,12.2c0,7.1,4.5,11.7,11.8,11.7c1.7,0,3.1-0.2,4.2-0.4L83.7,55.8z"/>
	<path fill="#FFFFFF" d="M203.7,51c0,6.3-4.5,9.2-8.8,9.2c-4.8,0-8.6-3.3-8.6-8.9c0-5.7,3.7-9.1,8.9-9.1
		C200.2,42.2,203.7,45.8,203.7,51z M190.7,51.2c0,3.3,1.7,5.8,4.3,5.8c2.5,0,4.2-2.4,4.2-5.9c0-2.7-1.2-5.8-4.2-5.8
		C191.9,45.3,190.7,48.3,190.7,51.2z"/>
	<g>
		<g>
			<path fill="#FFFFFF" d="M235.1,44.2c-0.7-0.9-2.1-1.4-3.4-1.4c-3,0-4.9,1-5.1,1.1v-0.7v-0.6h-4.3v17.2h4.3V46.5
				c0.8-0.3,1.9-0.4,2.5-0.4c2,0,2.7,1,2.7,3.2v10.5h4.3V48.2C236.1,46.6,236.1,45.3,235.1,44.2z"/>
		</g>
	</g>
	<g>
		<g>
			<path fill="#FFFFFF" d="M206.7,58.2c0.7,0.9,2.1,1.4,3.4,1.4c3,0,4.9-1,5.1-1.1v0.7v0.6h4.3V42.6h-4.3v13.3
				c-0.8,0.3-1.9,0.4-2.5,0.4c-2,0-2.7-1-2.7-3.2V42.6h-4.3v11.6C205.7,55.8,205.7,57,206.7,58.2z"/>
		</g>
	</g>
	<path fill="#FFFFFF" d="M185.3,55.8c-1.1,0.5-2.9,0.8-4.6,0.8c-5.1,0-8.1-3.2-8.1-8.3c0-5.6,3.4-8.5,8.1-8.5c1.9,0,3.4,0.4,4.5,0.9
		l0.9-3.4c-0.9-0.4-2.8-1-5.6-1c-7.1,0-12.4,4.6-12.4,12.2c0,7.1,4.5,11.7,11.8,11.7c1.7,0,3.1-0.2,4.2-0.4L185.3,55.8z"/>
</g>
</svg>
